#define xbm_width 128
#define xbm_height 64
static unsigned char xbm_bits[] = {
0xff,0xff,0xff,0xff,0xff,0xff,0xff,0xff,0xff,0xff,0xff,0xff,0xff,0xff,0xff,0x7f,
0xff,0xff,0xff,0xff,0xff,0xff,0xff,0xff,0xff,0xff,0xff,0xff,0xff,0xff,0xff,0x7f,
0x83,0xdf,0x70,0x3f,0xec,0x0d,0xf6,0xbd,0xe1,0xf9,0x3f,0x1c,0xf6,0x06,0xff,0x7f,
0xef,0x5f,0xef,0xde,0xeb,0xbd,0xef,0xbd,0xde,0xf6,0xdf,0xeb,0xf5,0xde,0xff,0x7f,
0xef,0x6f,0xef,0xdd,0xeb,0xbd,0xdf,0xbd,0x7e,0xef,0xdf,0xef,0xe5,0xde,0xff,0x7f,
0xef,0x6f,0xef,0xdb,0xeb,0xbd,0xbf,0xdb,0x7e,0xef,0xdf,0xef,0xd5,0xde,0xff,0x7f,
0xef,0x77,0xef,0xd7,0xeb,0xbd,0x7f,0xdb,0x7e,0xef,0xdf,0xef,0xb5,0xde,0xff,0x7f,
0xef,0x7b,0xef,0xdb,0xeb,0xbd,0xbf,0xdb,0x7e,0xe0,0xdf,0xef,0x75,0xde,0xff,0x7f,
0xef,0x7b,0xef,0xdd,0xeb,0xbd,0xdf,0xe7,0x7e,0xef,0xdf,0xef,0xf5,0xde,0xff,0x7f,
0xef,0x7d,0xef,0xde,0xeb,0xbd,0xef,0xe7,0x5e,0xef,0xdf,0xeb,0xf5,0xde,0xff,0x7f,
0x83,0xfd,0x70,0x3f,0x1c,0xbe,0xf7,0xe7,0x61,0xef,0x3f,0x1c,0xf6,0xde,0xff,0x7f,
0xff,0xff,0xff,0xff,0xff,0xff,0xff,0xff,0xff,0xff,0xff,0xff,0xff,0xff,0xff,0x7f,
0x00,0x00,0x00,0x00,0x00,0x00,0x00,0x00,0x00,0x00,0x00,0x00,0x00,0x00,0x00,0x00,
0x00,0x00,0x00,0x00,0x00,0x3e,0x00,0x00,0x00,0x00,0xf8,0x00,0x00,0x00,0x00,0x00,
0x04,0x00,0x00,0x00,0x00,0x22,0x00,0x00,0x00,0x00,0x88,0x00,0x00,0x00,0x00,0x20,
0x04,0x00,0x00,0x00,0x00,0x22,0x00,0x00,0x00,0x00,0x88,0x00,0x00,0x00,0x00,0x20,
0x04,0x00,0x00,0x00,0x00,0x22,0x00,0x00,0x00,0x00,0x88,0x00,0x00,0x00,0x00,0x20,
0xfc,0xff,0xff,0xff,0xff,0xe3,0xff,0xff,0xff,0xff,0x8f,0xff,0xff,0xff,0xff,0x3f,
0x04,0x00,0x00,0x00,0x00,0x22,0x00,0x00,0x00,0x00,0x88,0x00,0x00,0x00,0x00,0x20,
0x04,0x00,0x00,0x00,0x00,0x22,0x00,0x00,0x00,0x08,0x88,0x00,0x00,0x00,0x20,0x20,
0x04,0x00,0x00,0x00,0x00,0x22,0x00,0x00,0x00,0x08,0x88,0x00,0x00,0x00,0x20,0x20,
0x04,0x00,0x00,0x00,0x00,0x22,0x00,0x00,0x00,0x08,0x88,0x00,0x00,0x00,0x20,0x20,
0x04,0x00,0x00,0x00,0x00,0x22,0x00,0x00,0x00,0x08,0x88,0x00,0x00,0x00,0x20,0x20,
0x04,0x7e,0x21,0x00,0x00,0x22,0x78,0x42,0x1f,0x08,0x88,0x08,0x79,0x18,0xf8,0x20,
0x04,0x02,0x21,0x00,0x00,0x22,0x84,0x42,0x22,0x08,0x88,0x08,0x85,0x24,0xf8,0x20,
0x04,0x02,0x12,0x00,0x00,0x22,0x04,0x42,0x22,0x08,0x88,0x08,0x05,0x42,0x20,0x20,
0x04,0x02,0x12,0x00,0x00,0x22,0x04,0x42,0x22,0x08,0x88,0x90,0x04,0x42,0x20,0x20,
0x04,0x1e,0x0c,0x00,0x00,0x22,0x78,0x42,0x1e,0x08,0x88,0x90,0x04,0x42,0x20,0x20,
0x04,0x02,0x12,0x00,0x00,0x22,0x80,0x42,0x22,0x08,0x88,0x90,0x04,0x7e,0x20,0x20,
0x04,0x02,0x12,0x00,0x00,0x22,0x80,0x42,0x22,0x08,0x88,0x60,0x04,0x42,0x20,0x20,
0x04,0x02,0x21,0x00,0x00,0x22,0x84,0x42,0x22,0x08,0x88,0x60,0x84,0x42,0x20,0x20,
0x04,0x02,0x21,0x00,0x00,0x22,0x78,0x3c,0x1f,0x08,0x88,0x60,0x78,0x42,0x20,0x20,
0x04,0x00,0x00,0x00,0x00,0x22,0x00,0x00,0x00,0x08,0x88,0x00,0x00,0x00,0x20,0x20,
0x04,0x00,0x00,0x00,0x00,0x22,0x00,0x00,0x00,0x08,0x88,0x00,0x00,0x00,0x20,0x20,
0x04,0x00,0x00,0x00,0x00,0x22,0x00,0x00,0x00,0x3e,0x88,0x00,0x00,0x00,0x20,0x20,
0x05,0x00,0x00,0x00,0x00,0x2a,0x00,0x00,0x00,0x3e,0xa8,0x00,0x00,0x00,0x00,0x20,
0x05,0x00,0x00,0x00,0x00,0x2a,0x00,0x00,0x00,0x00,0xa8,0x00,0x00,0x00,0x00,0x20,
0xfd,0xff,0xff,0xff,0xff,0xeb,0xff,0xff,0xff,0xff,0xaf,0xff,0xff,0xff,0xff,0x3f,
0x05,0x00,0x00,0x00,0x00,0x2a,0x00,0x00,0x00,0x00,0xa8,0xff,0xff,0xff,0xff,0x3f,
0x05,0x00,0x00,0x00,0x00,0x2a,0x00,0x00,0x00,0x00,0xa8,0xff,0xff,0xff,0xff,0x3f,
0x05,0x00,0x00,0x00,0x00,0x2a,0x00,0x00,0x00,0x00,0xa8,0xff,0xff,0xff,0xff,0xbf,
0x05,0x00,0x00,0x00,0x00,0xaa,0x88,0x88,0x00,0x00,0xa8,0x07,0x5d,0xf7,0xdf,0xbf,
0x05,0x00,0x00,0x00,0x00,0xaa,0x4d,0x89,0x00,0x00,0xa8,0xf7,0x59,0xf7,0xc7,0xbf,
0x05,0x00,0x00,0x00,0x00,0xaa,0x4a,0x89,0x00,0x00,0xa8,0xf7,0x55,0xf7,0xdf,0xbf,
0xa5,0x71,0x1a,0x07,0x00,0xaa,0x2a,0x52,0x00,0x00,0xa8,0x87,0x4d,0xf7,0xdf,0xbf,
0x65,0x8a,0xa6,0x08,0x00,0xaa,0x28,0x22,0x00,0x00,0xa8,0xf7,0xdd,0xfa,0xdf,0xbf,
0x25,0x8a,0xa2,0x0f,0x00,0xaa,0xe8,0x53,0x00,0x00,0xa8,0xf7,0xdd,0xfa,0xdf,0xbf,
0x25,0x8a,0xa2,0x00,0x00,0xaa,0x28,0x8a,0x00,0x00,0xa8,0xf7,0xdd,0xfd,0xdf,0xbf,
0x25,0x72,0x22,0x0f,0x00,0xaa,0x28,0x8a,0x00,0x00,0xa8,0x07,0xdd,0xfd,0x07,0xbf,
0x04,0x00,0x00,0x00,0x00,0x22,0x00,0x00,0x00,0x00,0x88,0xff,0xff,0xff,0xff,0x3f,
0x07,0x00,0x00,0x00,0x00,0x3e,0x00,0x00,0x00,0x00,0xf8,0xff,0xff,0xff,0xff,0xff,
0x00,0x00,0x00,0x00,0x00,0x00,0x00,0x00,0x00,0x00,0x00,0x00,0x00,0x00,0x00,0x00,
0xff,0x0f,0x00,0x00,0x00,0x00,0x00,0x80,0xff,0x7f,0x00,0x00,0x00,0xfe,0x7f,0x00,
0x01,0x0c,0x00,0x00,0x00,0x40,0x00,0x80,0x00,0x00,0x01,0x01,0x00,0x02,0x00,0x04,
0x01,0x0c,0x00,0x00,0x00,0xc0,0xff,0xff,0xff,0xff,0x01,0xff,0xff,0xff,0xff,0x07,
0x01,0x0c,0x00,0x00,0x00,0x00,0x00,0x00,0x00,0x00,0x00,0x00,0x00,0x02,0x00,0x00,
0x01,0x0a,0x00,0x00,0x00,0x00,0x00,0x00,0x00,0x00,0x00,0x00,0x00,0x02,0x00,0x00,
0x01,0x0a,0x00,0x00,0x00,0x00,0x00,0x00,0x00,0x00,0x00,0x00,0x00,0x02,0x00,0x00,
0x01,0xf9,0xff,0xff,0xff,0xff,0xff,0xff,0xff,0xff,0xff,0xff,0xff,0x03,0x00,0x00,
0x01,0x09,0x00,0x00,0x00,0x00,0x00,0x00,0x00,0x00,0x00,0x00,0x00,0x00,0x00,0x00,
0xc1,0x08,0x00,0x00,0x00,0x00,0x00,0x00,0x00,0x00,0x00,0x00,0x00,0x00,0x00,0x00,
0x31,0x08,0x00,0x00,0x00,0x00,0x00,0x00,0x00,0x00,0x00,0x00,0x00,0x00,0x00,0x00,
0x0f,0x08,0x00,0x00,0x00,0x00,0x00,0x00,0x00,0x00,0x00,0x00,0x00,0x00,0x00,0x00,
0xff,0x0f,0x00,0x00,0x00,0x00,0x00,0x00,0x00,0x00,0x00,0x00,0x00,0x00,0x00,0x00};
