G04 DipTrace 3.3.0.0*
G04 DoT_DIY1.GTP*
%MOIN*%
G04 #@! TF.FileFunction,Paste,Top*
G04 #@! TF.Part,Single*
%AMOUTLINE1*
4,1,4,
0.019685,0.027559,
-0.019685,0.027559,
-0.019685,-0.027559,
0.019685,-0.027559,
0.019685,0.027559,
0*%
%AMOUTLINE2*
4,1,4,
0.035492,-0.031496,
0.035492,0.031496,
-0.035492,0.031496,
-0.035492,-0.031496,
0.035492,-0.031496,
0*%
%ADD25R,0.051181X0.059055*%
%ADD26R,0.059055X0.051181*%
%ADD29R,0.100394X0.062992*%
%ADD30R,0.070866X0.062992*%
%ADD31R,0.062992X0.070866*%
%ADD33R,0.064961X0.124016*%
%ADD35R,0.062992X0.124016*%
%ADD36R,0.03937X0.086614*%
%ADD37R,0.03937X0.055118*%
%ADD44R,0.062992X0.106299*%
%ADD47R,0.023622X0.07874*%
%ADD50R,0.043307X0.023622*%
%ADD56R,0.041339X0.025591*%
%ADD57R,0.07874X0.023622*%
%ADD58R,0.011811X0.055118*%
%ADD117OUTLINE1*%
%ADD118OUTLINE2*%
%FSLAX26Y26*%
G04*
G70*
G90*
G75*
G01*
G04 TopPaste*
%LPD*%
D25*
X2173570Y4142912D3*
X2098767D3*
X943900Y3625136D3*
X869097D3*
X1175257Y750249D3*
X1250060D3*
X665278Y476173D3*
X740081D3*
X768900Y3188962D3*
X694097D3*
X1454333Y3058589D3*
X1379530D3*
X968900Y2519000D3*
X894097D3*
D26*
X3167648Y2292997D3*
Y2367801D3*
D25*
X768900Y2169000D3*
X694097D3*
X951200Y1556390D3*
X876397D3*
X2868900Y1444000D3*
X2794097D3*
X2969105Y1402837D3*
X3043908D3*
X840157Y1227680D3*
X765354D3*
X1536750Y1169000D3*
X1461947D3*
D26*
X2192191Y2528657D3*
Y2603461D3*
D25*
X2182307Y2427117D3*
X2107504D3*
X2168669Y3539845D3*
X2093866D3*
X2177363Y3248555D3*
X2102560D3*
X2279727Y1749832D3*
X2354530D3*
X2294765Y4588963D3*
X2219962D3*
D29*
X3004242Y3937675D3*
X3142038D3*
D26*
X1091791Y4296427D3*
Y4221623D3*
D30*
X1941534Y4389094D3*
Y4278858D3*
X2330591Y4381925D3*
Y4271689D3*
D31*
X817191Y4262409D3*
X927427D3*
X3147381Y4254045D3*
X3037145D3*
D25*
X3406506Y4256500D3*
X3481309D3*
D31*
X929715Y3963589D3*
X819479D3*
D25*
X494105Y3369000D3*
X568908D3*
X1169105Y3375249D3*
X1243908D3*
X3176783Y3414299D3*
X3101980D3*
X494105Y3069000D3*
X568908D3*
X1012649Y3062749D3*
X937846D3*
D33*
X1431502Y2425299D3*
Y2212701D3*
D25*
X568900Y2644000D3*
X494097D3*
X1166623Y2413192D3*
X1091820D3*
D35*
X1431502Y1998059D3*
Y1805146D3*
D25*
X568900Y2177773D3*
X494097D3*
X1163842Y2194000D3*
X1238645D3*
X1186750Y1469000D3*
X1111947D3*
X566271Y1344000D3*
X641074D3*
X1236750Y1269000D3*
X1161947D3*
X1043900Y1225249D3*
X969097D3*
X1243998Y850249D3*
X1169195D3*
X737838Y582335D3*
X663035D3*
X1237748Y550249D3*
X1162944D3*
X881498Y775558D3*
X806695D3*
D36*
X1606294Y4322841D3*
X1706294D3*
Y4547644D3*
X1606294D3*
D37*
X3406502Y2237307D3*
X3443904Y2150693D3*
X3369101D3*
X3406502Y2062307D3*
X3443904Y1975693D3*
X3369101D3*
D44*
X941892Y4557073D3*
X831656D3*
X2078282Y4361114D3*
X2188518D3*
D26*
X2376135Y2801626D3*
Y2876429D3*
D47*
X3356502Y2944000D3*
X3406502D3*
X3456502D3*
X3506502D3*
Y3156598D3*
X3456502D3*
X3406502D3*
X3356502D3*
D117*
X3142245Y1425797D3*
X3179647Y1512411D3*
X3217048Y1425797D3*
X3125253Y601198D3*
X3162654Y687812D3*
X3200056Y601198D3*
D118*
X1515019Y4130333D3*
Y4018365D3*
D25*
X2006502Y3869000D3*
X1931699D3*
D118*
X1516291Y3855382D3*
Y3743413D3*
D25*
X2543904Y3594000D3*
X2469101D3*
X2543904Y3494000D3*
X2469101D3*
X1483980Y3490680D3*
X1558783D3*
X2469101Y3394000D3*
X2543904D3*
X3456305Y3319000D3*
X3381502D3*
X2469101Y3294000D3*
X2543904D3*
X494101Y3269000D3*
X568904D3*
X1246286Y3276310D3*
X1171483D3*
X2545507Y3186684D3*
X2470704D3*
X494101Y3169000D3*
X568904D3*
X1006404Y3194000D3*
X931601D3*
X1167459Y3169738D3*
X1242262D3*
X494101Y2969000D3*
X568904D3*
Y2869000D3*
X494101D3*
D26*
X3164011Y2613479D3*
Y2688282D3*
X3264011Y2613479D3*
Y2688282D3*
D25*
X737367Y2643117D3*
X662564D3*
X568904Y2394000D3*
X494101D3*
X3369101Y2369000D3*
X3443904D3*
X568904Y2285886D3*
X494101D3*
X1094101Y2307740D3*
X1168904D3*
X494101Y2069659D3*
X568904D3*
X1094101Y2088458D3*
X1168904D3*
D26*
X2556502Y2056402D3*
Y1981598D3*
X2681502Y2056402D3*
Y1981598D3*
X2931502Y1985720D3*
Y2060524D3*
X3044311Y1985720D3*
Y2060524D3*
D25*
X1073368Y2673367D3*
X998565D3*
D26*
X2556502Y1831402D3*
Y1756598D3*
X2681502Y1831402D3*
Y1756598D3*
X2931502Y1800854D3*
Y1875657D3*
X3044311Y1800854D3*
Y1875657D3*
D25*
X750710Y1819449D3*
X825513D3*
D26*
X3202908Y1747420D3*
Y1672617D3*
X2430378Y1983509D3*
Y2058312D3*
D25*
X1168904Y1569000D3*
X1094101D3*
X1361754Y1469000D3*
X1286951D3*
X1536754D3*
X1461951D3*
X2481502Y1394000D3*
X2406699D3*
X1236754Y1369000D3*
X1161951D3*
X1461951D3*
X1536754D3*
X3143792Y1299740D3*
X3218595D3*
X2481502Y1294000D3*
X2406699D3*
X1536754Y1269000D3*
X1461951D3*
X2261047D3*
X2186244D3*
X641070Y1244000D3*
X566267D3*
X3043904Y1295063D3*
X2969101D3*
X2481502Y1188361D3*
X2406699D3*
X3218851Y1186071D3*
X3144048D3*
X1236754Y1169000D3*
X1161951D3*
X2186244D3*
X2261047D3*
X2969101Y1187289D3*
X3043904D3*
X643497Y1107793D3*
X568694D3*
X2260153Y964415D3*
X2185350D3*
X570206Y969000D3*
X645009D3*
X1519101Y869000D3*
X1593904D3*
X2043904D3*
X1969101D3*
X1593904Y769000D3*
X1519101D3*
X1969101D3*
X2043904D3*
X1519101Y669000D3*
X1593904D3*
X2043904D3*
X1969101D3*
X1412653Y556500D3*
X1337850D3*
X1262653Y450249D3*
X1187850D3*
X3125253Y476198D3*
X3200056D3*
X3194708Y840262D3*
X3119905D3*
X987691Y1068793D3*
X1062494D3*
X1244002Y956500D3*
X1169199D3*
X1519006Y996050D3*
X1444203D3*
X1244002Y650249D3*
X1169199D3*
X883040Y876619D3*
X808237D3*
X1066927Y956500D3*
X992124D3*
X823864Y973478D3*
X749061D3*
X741480Y689322D3*
X666677D3*
D50*
X814042Y4161152D3*
Y4123751D3*
Y4086349D3*
X920341D3*
Y4161152D3*
X3028353Y4156402D3*
Y4119000D3*
Y4081598D3*
X3134652D3*
Y4156402D3*
D56*
X1906502Y4044000D3*
Y3969197D3*
X1997053Y4006598D3*
D57*
X769110Y3525136D3*
Y3475136D3*
Y3425136D3*
Y3375136D3*
X981708D3*
Y3425136D3*
Y3475136D3*
Y3525136D3*
D58*
X1400477Y2770301D3*
X1420162D3*
X1439847D3*
X1459532D3*
X1479217D3*
Y2943529D3*
X1459532D3*
X1439847D3*
X1420162D3*
X1400477D3*
D47*
X3056502Y2663436D3*
X3006502D3*
X2956502D3*
X2906502D3*
X2856502D3*
X2806502D3*
X2756502D3*
X2706502D3*
X2656502D3*
X2606502D3*
X2556502D3*
X2506502D3*
Y2293357D3*
X2556502D3*
X2606502D3*
X2656502D3*
X2706502D3*
X2756502D3*
X2806502D3*
X2856502D3*
X2906502D3*
X2956502D3*
X3006502D3*
X3056502D3*
D57*
X725203Y2419000D3*
Y2369000D3*
Y2319000D3*
Y2269000D3*
X937801D3*
Y2319000D3*
Y2369000D3*
Y2419000D3*
X775203Y1469000D3*
Y1419000D3*
Y1369000D3*
Y1319000D3*
X987801D3*
Y1369000D3*
Y1419000D3*
Y1469000D3*
X2625203Y1369000D3*
Y1319000D3*
Y1269000D3*
Y1219000D3*
X2837801D3*
Y1269000D3*
Y1319000D3*
Y1369000D3*
X1817346Y1270484D3*
Y1220484D3*
Y1170484D3*
Y1120484D3*
Y1070484D3*
Y1020484D3*
Y970484D3*
X2029944D3*
Y1020484D3*
Y1070484D3*
Y1120484D3*
Y1170484D3*
Y1220484D3*
Y1270484D3*
X844002Y681500D3*
Y631500D3*
Y581500D3*
Y531500D3*
X1056601D3*
Y581500D3*
Y631500D3*
Y681500D3*
D25*
X1666771Y1752440D3*
X1741574D3*
X1761759Y1859194D3*
X1836563D3*
D31*
X2723291Y4503734D3*
X2833527D3*
D26*
X2463349Y2801626D3*
Y2876429D3*
X2550564Y2801626D3*
Y2876429D3*
X2637778Y2801626D3*
Y2876429D3*
X2724993Y2801626D3*
Y2876429D3*
X2812207Y2801626D3*
Y2876429D3*
M02*
